<svg version="1.1" id="Layer_1" xmlns="http://www.w3.org/2000/svg" xmlns:xlink="http://www.w3.org/1999/xlink" x="0px" y="0px"
	 width="100%" viewBox="0 0 500 500" enable-background="new 0 0 500 500" xml:space="preserve">
<path fill="#000000" opacity="1.000000" stroke="none" 
	d="
M276.000000,501.000000 
	C184.000015,501.000000 92.500046,501.000000 1.000049,501.000000 
	C1.000033,334.333405 1.000033,167.666794 1.000016,1.000139 
	C167.666565,1.000092 334.333130,1.000092 500.999756,1.000046 
	C500.999847,167.666519 500.999847,334.333038 500.999939,500.999786 
	C426.166656,501.000000 351.333344,501.000000 276.000000,501.000000 
M95.968712,451.445282 
	C96.271500,451.850494 96.568466,452.260223 96.877922,452.660309 
	C105.589241,463.923248 118.226570,468.921082 130.235245,465.302246 
	C143.886414,461.188324 152.378784,451.810364 154.836777,437.853424 
	C157.267654,424.050354 151.228683,412.629028 138.435287,405.457611 
	C135.600159,403.868378 135.495361,401.910706 135.496948,399.346466 
	C135.522369,358.183502 135.511322,317.020508 135.528625,275.857544 
	C135.529266,274.332397 135.733307,272.807281 135.850739,271.168030 
	C136.607437,271.386902 136.794495,271.383759 136.886444,271.475708 
	C154.677292,289.266022 172.492004,307.032867 190.160095,324.944336 
	C191.096954,325.894104 191.040894,328.071564 191.020294,329.671997 
	C190.952347,334.945770 189.660721,340.426208 190.683990,345.451599 
	C194.353867,363.474792 212.046082,374.566315 229.439926,370.434021 
	C247.508240,366.141479 258.168610,348.931427 253.972961,330.828033 
	C249.959366,313.510162 232.009430,302.642639 214.267410,307.239410 
	C210.545303,308.203796 208.574814,307.291107 206.132126,304.824768 
	C188.072784,286.590240 169.871048,268.496857 151.746689,250.326584 
	C146.221359,244.787247 138.743576,240.012619 135.914230,233.304337 
	C133.163528,226.782501 135.212204,218.230865 135.178757,210.570435 
	C135.155258,205.183792 135.174225,199.796967 135.174225,193.373489 
	C137.186722,195.220337 138.308167,196.169922 139.340057,197.208511 
	C152.141159,210.092499 164.889313,223.029297 177.727600,235.876038 
	C229.206985,287.389313 280.618652,338.970825 332.253326,390.328033 
	C354.863586,412.816803 387.960632,417.528442 414.015717,402.634918 
	C453.738464,379.928802 460.556610,327.706909 428.069946,294.686310 
	C416.851379,283.283325 405.468170,272.041718 394.315552,260.575226 
	C392.987854,259.210114 391.948669,256.890686 391.944000,255.010727 
	C391.817200,203.848953 391.810211,152.686707 391.978638,101.525200 
	C391.984497,99.744125 393.562866,97.256790 395.137543,96.304375 
	C408.251190,88.372849 414.248199,74.519188 410.499329,60.569965 
	C407.298157,48.658920 394.988190,34.679565 377.738068,35.663872 
	C363.765808,36.461136 350.750549,46.877174 347.252686,60.986904 
	C343.809204,74.877342 349.742767,88.903404 362.433716,95.826210 
	C365.422882,97.456764 366.231171,99.220589 366.223572,102.414085 
	C366.124481,144.076782 366.160828,185.739777 366.144470,227.402710 
	C366.143921,228.790634 365.946686,230.178497 365.793884,232.187515 
	C364.070984,230.550674 362.865845,229.455109 361.715179,228.305084 
	C345.802338,212.401047 329.974091,196.410950 313.921356,180.649475 
	C310.893036,177.676056 309.896545,175.167450 310.921021,170.805634 
	C314.320282,156.333023 307.331543,141.937897 294.267365,135.110519 
	C281.384613,128.377960 265.523376,131.194046 255.374054,142.015884 
	C245.733658,152.295044 243.992508,168.175873 251.158157,180.468979 
	C258.548187,193.147079 273.455658,199.452454 287.629547,195.404892 
	C291.153015,194.398712 293.043152,195.363770 295.344788,197.684525 
	C312.712494,215.196442 330.197327,232.592163 347.626434,250.043289 
	C353.746033,256.170624 362.215668,261.371796 365.234955,268.779907 
	C368.331421,276.377197 366.086090,286.156982 366.152161,294.981720 
	C366.184845,299.347015 366.157867,303.712769 366.157867,308.078308 
	C365.626709,308.320801 365.095551,308.563293 364.564392,308.805756 
	C363.471741,307.347656 362.538513,305.730255 361.263611,304.454315 
	C297.184296,240.323135 233.129440,176.167297 168.937881,112.148575 
	C149.507401,92.770416 125.948250,86.766655 100.037666,95.032501 
	C51.033848,110.665405 36.979729,171.128754 73.281593,207.686340 
	C84.670616,219.155579 96.126152,230.559738 107.405556,242.135635 
	C108.742111,243.507385 109.883827,245.777908 109.888664,247.635010 
	C110.021591,298.630096 110.018494,349.625641 109.881683,400.620697 
	C109.877586,402.146301 108.571175,404.319672 107.236168,405.091827 
	C89.786018,415.185303 85.136757,433.105042 95.968712,451.445282 
z"/>
<path fill="#1F8DE9" opacity="1.000000" stroke="none" 
	d="
M95.761101,451.147217 
	C85.136757,433.105042 89.786018,415.185303 107.236168,405.091827 
	C108.571175,404.319672 109.877586,402.146301 109.881683,400.620697 
	C110.018494,349.625641 110.021591,298.630096 109.888664,247.635010 
	C109.883827,245.777908 108.742111,243.507385 107.405556,242.135635 
	C96.126152,230.559738 84.670616,219.155579 73.281593,207.686340 
	C36.979729,171.128754 51.033848,110.665405 100.037666,95.032501 
	C125.948250,86.766655 149.507401,92.770416 168.937881,112.148575 
	C233.129440,176.167297 297.184296,240.323135 361.263611,304.454315 
	C362.538513,305.730255 363.471741,307.347656 364.564392,308.805756 
	C365.095551,308.563293 365.626709,308.320801 366.157867,308.078308 
	C366.157867,303.712769 366.184845,299.347015 366.152161,294.981720 
	C366.086090,286.156982 368.331421,276.377197 365.234955,268.779907 
	C362.215668,261.371796 353.746033,256.170624 347.626434,250.043289 
	C330.197327,232.592163 312.712494,215.196442 295.344788,197.684525 
	C293.043152,195.363770 291.153015,194.398712 287.629547,195.404892 
	C273.455658,199.452454 258.548187,193.147079 251.158157,180.468979 
	C243.992508,168.175873 245.733658,152.295044 255.374054,142.015884 
	C265.523376,131.194046 281.384613,128.377960 294.267365,135.110519 
	C307.331543,141.937897 314.320282,156.333023 310.921021,170.805634 
	C309.896545,175.167450 310.893036,177.676056 313.921356,180.649475 
	C329.974091,196.410950 345.802338,212.401047 361.715179,228.305084 
	C362.865845,229.455109 364.070984,230.550674 365.793884,232.187515 
	C365.946686,230.178497 366.143921,228.790634 366.144470,227.402710 
	C366.160828,185.739777 366.124481,144.076782 366.223572,102.414085 
	C366.231171,99.220589 365.422882,97.456764 362.433716,95.826210 
	C349.742767,88.903404 343.809204,74.877342 347.252686,60.986904 
	C350.750549,46.877174 363.765808,36.461136 377.738068,35.663872 
	C394.988190,34.679565 407.298157,48.658920 410.499329,60.569965 
	C414.248199,74.519188 408.251190,88.372849 395.137543,96.304375 
	C393.562866,97.256790 391.984497,99.744125 391.978638,101.525200 
	C391.810211,152.686707 391.817200,203.848953 391.944000,255.010727 
	C391.948669,256.890686 392.987854,259.210114 394.315552,260.575226 
	C405.468170,272.041718 416.851379,283.283325 428.069946,294.686310 
	C460.556610,327.706909 453.738464,379.928802 414.015717,402.634918 
	C387.960632,417.528442 354.863586,412.816803 332.253326,390.328033 
	C280.618652,338.970825 229.206985,287.389313 177.727600,235.876038 
	C164.889313,223.029297 152.141159,210.092499 139.340057,197.208511 
	C138.308167,196.169922 137.186722,195.220337 135.174225,193.373489 
	C135.174225,199.796967 135.155258,205.183792 135.178757,210.570435 
	C135.212204,218.230865 133.163528,226.782501 135.914230,233.304337 
	C138.743576,240.012619 146.221359,244.787247 151.746689,250.326584 
	C169.871048,268.496857 188.072784,286.590240 206.132126,304.824768 
	C208.574814,307.291107 210.545303,308.203796 214.267410,307.239410 
	C232.009430,302.642639 249.959366,313.510162 253.972961,330.828033 
	C258.168610,348.931427 247.508240,366.141479 229.439926,370.434021 
	C212.046082,374.566315 194.353867,363.474792 190.683990,345.451599 
	C189.660721,340.426208 190.952347,334.945770 191.020294,329.671997 
	C191.040894,328.071564 191.096954,325.894104 190.160095,324.944336 
	C172.492004,307.032867 154.677292,289.266022 136.886444,271.475708 
	C136.794495,271.383759 136.607437,271.386902 135.850739,271.168030 
	C135.733307,272.807281 135.529266,274.332397 135.528625,275.857544 
	C135.511322,317.020508 135.522369,358.183502 135.496948,399.346466 
	C135.495361,401.910706 135.600159,403.868378 138.435287,405.457611 
	C151.228683,412.629028 157.267654,424.050354 154.836777,437.853424 
	C152.378784,451.810364 143.886414,461.188324 130.235245,465.302246 
	C118.226570,468.921082 105.589241,463.923248 96.877922,452.660309 
	C96.568466,452.260223 96.271500,451.850494 95.761101,451.147217 
M243.172119,222.328110 
	C220.838577,199.891769 198.531479,177.429016 176.158905,155.031662 
	C166.742142,145.604477 157.498993,135.969940 147.617432,127.049423 
	C134.735733,115.420555 115.200653,113.740707 100.040314,122.160370 
	C84.609756,130.730087 76.428322,147.664703 78.666588,165.004395 
	C81.235886,184.908646 97.468147,194.422394 109.999107,208.558487 
	C109.999107,195.875519 109.996513,184.738571 109.999931,173.601624 
	C110.002663,164.698456 113.297554,158.893250 120.053864,156.319473 
	C127.688889,153.410965 133.792847,155.854248 139.406754,161.478073 
	C209.213852,231.408478 279.102386,301.257568 348.980682,371.116882 
	C350.745941,372.881653 352.561127,374.610687 354.475128,376.210205 
	C368.168793,387.653870 387.940460,388.947510 403.437805,379.459930 
	C418.638611,370.153870 426.093536,352.017273 422.434540,334.629852 
	C418.654480,316.667297 403.679321,307.699890 391.837372,294.269104 
	C391.837372,297.503052 391.837494,299.131592 391.837372,300.760101 
	C391.836548,310.591064 391.955017,320.423859 391.801544,330.252441 
	C391.645386,340.252228 385.503265,346.992432 376.128571,347.626190 
	C369.930145,348.045197 365.497101,344.701935 361.356171,340.553619 
	C322.156097,301.283875 282.907104,262.063019 243.172119,222.328110 
M388.477753,63.218487 
	C384.677185,57.555176 379.825653,55.794487 374.572540,58.172104 
	C369.809875,60.327763 367.301361,65.595886 368.696198,70.513107 
	C370.388428,76.478676 375.960266,79.711609 381.794983,78.113335 
	C387.832581,76.459488 390.519684,71.029518 388.477753,63.218487 
M112.042870,431.973572 
	C111.431702,436.911926 113.075569,440.809845 117.472267,443.309021 
	C121.329910,445.501801 125.188316,445.095398 128.713165,442.613159 
	C132.284546,440.098175 133.660477,436.489105 133.008087,432.158234 
	C132.339645,427.720978 128.640900,424.126892 124.015099,423.366882 
	C119.092491,422.558044 114.984413,425.269836 112.042870,431.973572 
M268.810211,165.299362 
	C270.251862,172.182358 275.546509,176.076935 281.507721,174.639206 
	C286.993958,173.316055 290.666718,168.131851 289.889526,162.808151 
	C289.115540,157.506577 284.507477,153.509064 279.212860,153.546158 
	C273.345093,153.587250 269.449677,157.646545 268.810211,165.299362 
M212.003723,335.561554 
	C210.943481,342.583771 213.951859,347.817047 219.739594,349.018646 
	C225.673889,350.250671 231.264526,346.741577 232.642609,340.919708 
	C233.801651,336.023254 231.023346,330.846771 226.156860,328.835663 
	C220.730164,326.593079 215.891815,328.676361 212.003723,335.561554 
z"/>
<path fill="#000102" opacity="1.000000" stroke="none" 
	d="
M243.422150,222.578094 
	C282.907104,262.063019 322.156097,301.283875 361.356171,340.553619 
	C365.497101,344.701935 369.930145,348.045197 376.128571,347.626190 
	C385.503265,346.992432 391.645386,340.252228 391.801544,330.252441 
	C391.955017,320.423859 391.836548,310.591064 391.837372,300.760101 
	C391.837494,299.131592 391.837372,297.503052 391.837372,294.269104 
	C403.679321,307.699890 418.654480,316.667297 422.434540,334.629852 
	C426.093536,352.017273 418.638611,370.153870 403.437805,379.459930 
	C387.940460,388.947510 368.168793,387.653870 354.475128,376.210205 
	C352.561127,374.610687 350.745941,372.881653 348.980682,371.116882 
	C279.102386,301.257568 209.213852,231.408478 139.406754,161.478073 
	C133.792847,155.854248 127.688889,153.410965 120.053864,156.319473 
	C113.297554,158.893250 110.002663,164.698456 109.999931,173.601624 
	C109.996513,184.738571 109.999107,195.875519 109.999107,208.558487 
	C97.468147,194.422394 81.235886,184.908646 78.666588,165.004395 
	C76.428322,147.664703 84.609756,130.730087 100.040314,122.160370 
	C115.200653,113.740707 134.735733,115.420555 147.617432,127.049423 
	C157.498993,135.969940 166.742142,145.604477 176.158905,155.031662 
	C198.531479,177.429016 220.838577,199.891769 243.422150,222.578094 
z"/>
<path fill="#010407" opacity="1.000000" stroke="none" 
	d="
M388.655365,63.554897 
	C390.519684,71.029518 387.832581,76.459488 381.794983,78.113335 
	C375.960266,79.711609 370.388428,76.478676 368.696198,70.513107 
	C367.301361,65.595886 369.809875,60.327763 374.572540,58.172104 
	C379.825653,55.794487 384.677185,57.555176 388.655365,63.554897 
z"/>
<path fill="#010407" opacity="1.000000" stroke="none" 
	d="
M112.110924,431.576813 
	C114.984413,425.269836 119.092491,422.558044 124.015099,423.366882 
	C128.640900,424.126892 132.339645,427.720978 133.008087,432.158234 
	C133.660477,436.489105 132.284546,440.098175 128.713165,442.613159 
	C125.188316,445.095398 121.329910,445.501801 117.472267,443.309021 
	C113.075569,440.809845 111.431702,436.911926 112.110924,431.576813 
z"/>
<path fill="#010305" opacity="1.000000" stroke="none" 
	d="
M268.772339,164.882370 
	C269.449677,157.646545 273.345093,153.587250 279.212860,153.546158 
	C284.507477,153.509064 289.115540,157.506577 289.889526,162.808151 
	C290.666718,168.131851 286.993958,173.316055 281.507721,174.639206 
	C275.546509,176.076935 270.251862,172.182358 268.772339,164.882370 
z"/>
<path fill="#010204" opacity="1.000000" stroke="none" 
	d="
M212.104858,335.202087 
	C215.891815,328.676361 220.730164,326.593079 226.156860,328.835663 
	C231.023346,330.846771 233.801651,336.023254 232.642609,340.919708 
	C231.264526,346.741577 225.673889,350.250671 219.739594,349.018646 
	C213.951859,347.817047 210.943481,342.583771 212.104858,335.202087 
z"/>
</svg>